<?xml version="1.0" encoding="UTF-8"?>
<!DOCTYPE svg PUBLIC "-//W3C//DTD SVG 1.1//EN" "http://www.w3.org/Graphics/SVG/1.1/DTD/svg11.dtd">
<!-- Creator: CorelDRAW X6 -->
<svg xmlns="http://www.w3.org/2000/svg" xml:space="preserve" width="19.2349in" height="5.26903in" version="1.1" style="shape-rendering:geometricPrecision; text-rendering:geometricPrecision; image-rendering:optimizeQuality; fill-rule:evenodd; clip-rule:evenodd"
viewBox="0 0 26358 7220"
 xmlns:xlink="http://www.w3.org/1999/xlink">
 <defs>
  <style type="text/css">
   <![CDATA[
    .str0 {stroke:#FEFEFE;stroke-width:152.254}
    .fil2 {fill:none}
    .fil1 {fill:#ED3237}
    .fil0 {fill:#FEFEFE;fill-rule:nonzero}
   ]]>
  </style>
    <clipPath id="id0">
     <path d="M0 0l26358 39 0 7181 -26358 -39 0 -7181z"/>
    </clipPath>
 </defs>
 <g id="Layer_x0020_1">
  <metadata id="CorelCorpID_0Corel-Layer"/>
  <g id="_289577776">
   <g style="clip-path:url(#id0)">
    <image transform="matrix(1 0 0 1 -9617.46 5052.19)" x="9617" y="-5052" width="26358" height="7220" xlink:href="oladeji photography_Images\oladeji photography_ImgID1.png"/>
   </g>
  </g>
  <g id="_289957912">
   <path class="fil0" d="M2026 4305c-565,0 -1015,-187 -1351,-563 -336,-375 -503,-863 -503,-1464 0,-637 172,-1148 518,-1531 344,-383 816,-576 1412,-576 540,0 975,185 1309,553 334,369 501,853 501,1451 0,661 -171,1182 -513,1561 -343,380 -799,569 -1372,569zm28 -3883c-464,0 -847,168 -1147,504 -300,337 -450,777 -450,1323 0,550 142,989 426,1315 285,326 663,489 1137,489 494,0 885,-162 1173,-484 288,-323 432,-772 432,-1348 0,-565 -141,-1006 -423,-1323 -282,-317 -664,-476 -1150,-476z"/>
   <polygon class="fil0" points="4513,4236 4513,1472 4681,1472 4681,4236 "/>
   <path class="fil0" d="M6396 4236l0 -374 -7 0c-59,128 -146,229 -260,305 -114,76 -240,114 -378,114 -177,0 -317,-50 -421,-149 -103,-100 -155,-225 -155,-377 0,-326 216,-522 647,-590l574 -86c0,-401 -151,-601 -453,-601 -206,0 -406,83 -601,248l0 -203c69,-55 163,-101 282,-140 119,-39 230,-59 335,-59 192,0 341,60 446,179 105,119 158,293 158,520l0 1214 -168 0zm-515 -930c-195,28 -333,73 -412,136 -79,63 -119,164 -119,305 0,111 37,202 110,273 74,72 176,108 308,108 181,0 330,-67 449,-199 119,-133 179,-305 179,-515l0 -182 -515 75z"/>
   <path class="fil0" d="M8451 4236l0 -340 -7 0c-60,118 -151,212 -270,281 -120,69 -253,104 -403,104 -230,0 -418,-84 -563,-252 -145,-167 -218,-399 -218,-694 0,-301 79,-545 238,-732 159,-186 365,-280 618,-280 280,0 479,115 598,344l7 0 0 -1196 168 0 0 2764 -168 0zm0 -1136c0,-174 -55,-321 -165,-442 -110,-121 -258,-181 -444,-181 -195,0 -357,75 -485,225 -128,150 -191,357 -191,619 0,258 57,456 172,597 115,140 263,210 444,210 212,0 377,-66 494,-198 116,-131 175,-292 175,-482l0 -348z"/>
   <path class="fil0" d="M9257 3310c0,256 59,457 178,601 118,144 281,217 487,217 209,0 413,-77 612,-232l0 179c-193,138 -409,206 -647,206 -240,0 -435,-87 -583,-259 -148,-172 -222,-416 -222,-731 0,-272 78,-501 233,-688 155,-186 356,-280 604,-280 232,0 410,82 534,244 124,163 186,385 186,667l0 75 -1382 0zm1206 -153c-7,-215 -59,-382 -155,-501 -96,-119 -228,-179 -397,-179 -175,0 -320,59 -435,176 -115,117 -186,285 -212,504l1199 0z"/>
   <path class="fil0" d="M11184 1898c-36,0 -68,-13 -96,-40 -28,-27 -42,-61 -42,-102 0,-40 14,-72 43,-97 28,-25 60,-37 95,-37 37,0 71,12 99,36 29,24 43,57 43,98 0,39 -14,72 -42,100 -28,28 -62,42 -100,42zm86 2286c0,620 -220,930 -660,930 -88,0 -176,-21 -266,-63l0 -176c97,57 192,86 284,86 316,0 474,-249 474,-746l0 -1846 168 0 0 1815z"/>
   <path class="fil0" d="M11950 1898c-36,0 -68,-13 -96,-40 -28,-27 -42,-61 -42,-102 0,-40 14,-72 43,-97 28,-25 60,-37 95,-37 37,0 71,12 99,36 29,24 43,57 43,98 0,39 -14,72 -42,100 -28,28 -62,42 -100,42zm-82 2338l0 -1868 168 0 0 1868 -168 0z"/>
   <path class="fil0" d="M14769 4281c-370,0 -664,-123 -884,-369 -220,-245 -329,-565 -329,-957 0,-416 113,-751 339,-1002 225,-251 534,-377 924,-377 353,0 638,121 857,362 219,242 327,558 327,949 0,433 -112,773 -336,1021 -224,248 -523,372 -898,372zm18 -2540c-304,0 -554,110 -750,330 -196,220 -294,509 -294,865 0,360 93,647 279,860 186,214 434,320 744,320 323,0 579,-106 768,-317 189,-211 283,-505 283,-882 0,-370 -92,-658 -276,-865 -184,-207 -435,-311 -752,-311zm3039 2495l0 -340 -7 0c-60,118 -151,212 -270,281 -120,69 -253,104 -403,104 -230,0 -418,-84 -563,-252 -145,-167 -218,-399 -218,-694 0,-301 79,-545 238,-732 159,-186 365,-280 618,-280 280,0 479,115 598,344l7 0 0 -1196 168 0 0 2764 -168 0zm0 -1136c0,-174 -55,-321 -165,-442 -110,-121 -258,-181 -444,-181 -195,0 -357,75 -485,225 -128,150 -191,357 -191,619 0,258 57,456 172,597 115,140 263,210 444,210 212,0 377,-66 494,-198 116,-131 175,-292 175,-482l0 -348zm1998 1136l0 -340 -7 0c-129,256 -330,385 -601,385 -441,0 -661,-278 -661,-833l0 -1079 168 0 0 1037c0,253 42,436 125,551 83,114 214,171 393,171 174,0 315,-64 423,-192 108,-128 161,-298 161,-510l0 -1058 168 0 0 1868 -168 0zm669 -83l0 -202c64,55 140,98 230,129 90,32 167,47 233,47 293,0 440,-120 440,-359 0,-82 -32,-153 -96,-211 -65,-59 -169,-118 -314,-181 -179,-78 -304,-158 -377,-242 -73,-83 -109,-184 -109,-303 0,-152 58,-275 174,-369 116,-93 259,-140 430,-140 161,0 298,33 412,98l0 190c-139,-90 -282,-135 -430,-135 -123,0 -222,32 -297,96 -75,63 -113,146 -113,248 0,89 24,161 71,216 48,55 153,119 314,190 195,87 329,169 402,243 73,75 110,174 110,298 0,148 -55,271 -167,367 -111,96 -265,145 -461,145 -181,0 -331,-42 -451,-128zm2297 128c-273,0 -488,-90 -647,-269 -159,-179 -238,-412 -238,-698 0,-310 83,-552 249,-727 166,-175 384,-263 656,-263 266,0 476,87 631,261 154,174 232,414 232,722 0,290 -78,525 -236,705 -158,180 -373,270 -646,270zm12 -1804c-220,0 -395,74 -525,222 -131,148 -196,354 -196,618 0,245 63,441 191,589 128,148 302,222 523,222 225,0 398,-73 519,-219 121,-146 182,-348 182,-607 0,-266 -60,-470 -181,-613 -121,-142 -292,-213 -513,-213zm1333 1759l0 -2764 168 0 0 2764 -168 0zm1883 0l0 -374 -7 0c-59,128 -146,229 -260,305 -114,76 -240,114 -378,114 -177,0 -317,-50 -421,-149 -103,-100 -155,-225 -155,-377 0,-326 216,-522 647,-590l574 -86c0,-401 -151,-601 -453,-601 -206,0 -406,83 -601,248l0 -203c69,-55 163,-101 282,-140 119,-39 230,-59 335,-59 192,0 341,60 446,179 105,119 158,293 158,520l0 1214 -168 0zm-515 -930c-195,28 -333,73 -412,136 -79,63 -119,164 -119,305 0,111 37,202 110,273 74,72 176,108 308,108 181,0 330,-67 449,-199 119,-133 179,-305 179,-515l0 -182 -515 75z"/>
   <path class="fil0" d="M9378 6117l0 473 -146 0 0 -1250 343 0c134,0 237,32 311,98 74,65 110,157 110,276 0,118 -41,216 -123,291 -82,76 -192,113 -331,113l-165 0zm0 -645l0 513 154 0c101,0 178,-23 231,-69 53,-46 80,-112 80,-196 0,-165 -98,-248 -293,-248l-172 0zm1576 1118l-143 0 0 -515c0,-186 -69,-279 -207,-279 -70,0 -129,27 -176,81 -48,54 -71,123 -71,207l0 506 -143 0 0 -1322 143 0 0 577 4 0c68,-113 166,-169 293,-169 201,0 302,121 302,363l0 550zm643 21c-132,0 -237,-42 -316,-125 -79,-83 -118,-194 -118,-332 0,-150 41,-267 123,-352 82,-84 193,-126 332,-126 133,0 237,41 312,123 75,82 112,196 112,341 0,143 -40,257 -121,342 -81,86 -189,129 -324,129zm10 -814c-92,0 -164,31 -218,94 -54,63 -80,149 -80,259 0,106 27,189 81,250 54,61 126,92 217,92 93,0 164,-30 213,-90 50,-60 74,-145 74,-255 0,-112 -25,-198 -74,-258 -50,-61 -121,-91 -213,-91zm1077 785c-34,18 -78,28 -133,28 -157,0 -235,-87 -235,-262l0 -528 -154 0 0 -122 154 0 0 -218 143 -46 0 264 225 0 0 122 -225 0 0 503c0,60 10,102 31,128 20,26 54,38 101,38 36,0 67,-10 93,-30l0 122zm564 29c-132,0 -237,-42 -316,-125 -79,-83 -118,-194 -118,-332 0,-150 41,-267 123,-352 82,-84 193,-126 332,-126 133,0 237,41 312,123 75,82 112,196 112,341 0,143 -40,257 -121,342 -81,86 -189,129 -324,129zm10 -814c-92,0 -164,31 -218,94 -54,63 -80,149 -80,259 0,106 27,189 81,250 54,61 126,92 217,92 93,0 164,-30 213,-90 50,-60 74,-145 74,-255 0,-112 -25,-198 -74,-258 -50,-61 -121,-91 -213,-91zm1425 722c0,328 -157,492 -471,492 -110,0 -207,-21 -290,-63l0 -143c101,56 196,84 288,84 220,0 330,-117 330,-351l0 -98 -3 0c-68,114 -171,171 -307,171 -111,0 -200,-40 -268,-119 -68,-79 -102,-186 -102,-319 0,-152 37,-272 110,-362 73,-90 173,-134 299,-134 121,0 210,48 268,145l3 0 0 -124 143 0 0 822zm-143 -332l0 -132c0,-71 -24,-132 -72,-182 -48,-51 -108,-76 -179,-76 -88,0 -158,32 -208,96 -50,64 -75,154 -75,270 0,99 24,179 72,239 48,60 112,89 190,89 80,0 146,-29 196,-85 50,-57 75,-130 75,-219zm898 -345c-25,-19 -61,-29 -108,-29 -61,0 -112,29 -153,86 -41,57 -61,136 -61,235l0 455 -143 0 0 -893 143 0 0 184 4 0c20,-63 51,-112 93,-147 42,-35 89,-53 140,-53 37,0 65,4 85,12l0 148zm794 748l-143 0 0 -140 -3 0c-62,107 -154,160 -275,160 -89,0 -159,-24 -209,-71 -50,-47 -75,-110 -75,-188 0,-167 98,-264 295,-291l268 -38c0,-152 -61,-228 -184,-228 -107,0 -204,37 -291,110l0 -146c88,-56 189,-84 303,-84 210,0 315,111 315,333l0 581zm-143 -452l-215 30c-66,9 -116,26 -150,49 -34,24 -51,65 -51,125 0,43 15,79 47,107 31,28 72,41 124,41 71,0 129,-25 176,-74 46,-50 69,-113 69,-189l0 -89zm854 -745c-28,-15 -60,-24 -95,-24 -100,0 -150,63 -150,189l0 138 209 0 0 122 -209 0 0 771 -142 0 0 -771 -153 0 0 -122 153 0 0 -145c0,-94 27,-168 81,-222 54,-54 122,-82 202,-82 44,0 78,5 104,16l0 129zm193 77c-26,0 -48,-9 -66,-26 -18,-17 -27,-39 -27,-66 0,-26 9,-48 27,-66 18,-18 40,-27 66,-27 26,0 49,9 67,27 18,18 28,40 28,67 0,26 -10,47 -28,65 -19,18 -41,27 -67,27zm70 1120l-143 0 0 -893 143 0 0 893z"/>
   <path class="fil1" d="M2041 1326c494,0 894,408 894,912 0,504 -400,912 -894,912 -494,0 -894,-408 -894,-912 0,-504 400,-912 894,-912z"/>
   <line class="fil2 str0" x1="171" y1="6022" x2="8177" y2= "6022" />
   <line class="fil2 str0" x1="18181" y1="6022" x2="26187" y2= "6022" />
  </g>
 </g>
</svg>
